<svg width="478" height="264" viewBox="0 0 478 264" fill="none" xmlns="http://www.w3.org/2000/svg">
<path d="M103.717 32.2759C100.473 23.6636 85.8922 19.6598 78.7092 26.3709C73.5901 31.1566 70.1258 38.5062 65.7157 44.0994C57.7519 54.2064 47.1458 68.3895 32.5282 62.6107C31.8748 62.3541 29.3859 62.7648 30.0838 63.8785C40.6338 80.7179 65.2787 90.0973 83.6461 79.5383C90.7068 75.4788 95.2647 69.3046 98.5149 61.9272C100.541 57.3289 101.712 52.3678 102.662 47.4489C103.135 44.9955 102.889 39.2779 105.14 37.6974C106.514 36.7321 107.721 36.166 108.726 34.8421C109.038 34.4286 108.639 34.0996 108.263 34.0026C106.692 33.5929 104.862 33.1353 103.612 32.0917C102.818 31.4281 100.166 32.5441 100.976 33.2198C101.964 34.0472 101.86 33.9553 103.19 34.5502C105.103 35.4105 106.691 34.5831 104.745 35.9507C101.429 38.2807 101.151 38.3596 100.63 42.575C99.4922 51.7896 97.0965 61.0144 92.1419 68.9394C86.1382 78.5452 76.034 82.1829 65.098 81.7309C51.1254 81.1555 40.0912 74.5131 32.72 62.7514C31.9038 63.1743 31.0886 63.5973 30.2743 64.0205C43.4345 69.2207 53.7394 61.1898 62.269 51.6146C66.997 46.3022 71.8324 40.5318 75.7198 34.5618C79.2054 29.2141 81.3495 25.2344 88.5145 25.0279C94.0288 24.8692 98.9445 27.911 100.875 33.0374C101.264 34.0722 104.078 33.2351 103.717 32.2759Z" fill="#4B270F"/>
<path d="M92.4534 33.475C92.4441 33.9362 92.2983 34.3844 92.0347 34.7627C91.771 35.141 91.4013 35.4326 90.9721 35.6005C90.543 35.7683 90.0738 35.805 89.6239 35.7059C89.1739 35.6068 88.7635 35.3763 88.4443 35.0435C88.1252 34.7108 87.9118 34.2907 87.831 33.8365C87.7503 33.3823 87.8059 32.9143 87.9907 32.4917C88.1755 32.0691 88.4813 31.7109 88.8695 31.4623C89.2576 31.2138 89.7106 31.0861 90.1712 31.0953C90.4772 31.1013 90.7789 31.1676 91.0593 31.2905C91.3396 31.4133 91.593 31.5903 91.8049 31.8113C92.0169 32.0324 92.1833 32.293 92.2946 32.5785C92.4058 32.864 92.4598 33.1686 92.4534 33.475Z" fill="#4B270F"/>
<path d="M70.7801 83.5189C71.6065 86.8223 72.4326 90.1252 73.2583 93.4277C74.1808 93.1446 75.1029 92.8609 76.0247 92.5766C75.9399 92.5302 75.864 92.4691 75.8005 92.3961C75.7078 92.2722 73.1476 92.9892 74.44 93.159C75.2069 93.2616 75.9622 93.4495 76.7143 93.6184C77.3445 93.7627 79.7912 92.7367 79.0655 92.5729C77.3551 92.1845 75.3412 91.6105 73.6564 92.4537C73.054 92.7558 72.6601 93.0857 73.3371 93.5149C73.7477 93.7753 76.2564 93.2829 76.1021 92.6643C75.2758 89.3616 74.4492 86.0589 73.6225 82.7564C73.4835 82.2033 70.6346 82.9421 70.7801 83.5189Z" fill="#4B270F"/>
<path d="M64.4859 84.1895C64.4392 87.586 64.3929 90.9842 64.3469 94.3841C65.2681 94.1011 66.1896 93.8175 67.1115 93.5335C67.0536 93.4744 67.0066 93.4057 66.9724 93.3303C66.265 93.5738 65.5568 93.8185 64.8478 94.0644C65.1374 94.1184 65.4221 94.196 65.699 94.2964C66.3186 94.4988 66.9219 94.7605 67.5234 95.0083C68.2843 95.322 70.3964 94.1456 70.2111 94.0686C68.4868 93.36 66.9585 92.6347 65.1189 93.2765C64.459 93.5085 63.7903 93.8588 64.4238 94.4723C64.8302 94.8663 67.1805 94.238 67.1888 93.6217C67.2355 90.2246 67.2818 86.8262 67.3279 83.4266C67.3325 83.0655 64.4956 83.4266 64.4859 84.1895Z" fill="#4B270F"/>
<path d="M88.1128 56.1809C81.1453 69.6982 67.5948 71.8333 54.2946 67.1728C52.0365 66.3816 52.3947 66.874 54.5921 65.0721C58.5561 61.8535 62.7573 58.9393 67.1597 56.3545C70.5086 54.3683 74.5702 52.0987 78.4965 51.5084C79.6304 51.339 81.0364 50.1836 79.0308 50.4843C68.2121 52.1084 57.9929 60.407 49.8799 67.055C49.7928 67.1274 49.6408 67.3408 49.8224 67.423C64.8891 74.1772 82.9687 71.0889 90.9154 55.6714C91.1142 55.2839 88.4807 55.4663 88.1128 56.1818V56.1809Z" fill="#4B270F"/>
<path d="M80.1212 55.8546C72.6509 60.0436 61.5105 67.0424 52.7084 65.8549C51.4707 65.6883 49.7427 67.4233 51.6588 67.6818C61.6356 69.0276 73.5772 61.6028 81.9404 56.9117C83.6179 55.972 81.1643 55.2699 80.1212 55.8546Z" fill="#4B270F"/>
<path d="M33.304 63.1249C30.6589 61.6664 27.6664 59.4849 26.5848 56.5633C25.6719 54.0997 28.2382 50.7395 30.8665 50.9483C32.6274 51.0852 33.9203 54.3243 33.4346 55.8306C32.9217 57.4139 35.7618 57.3981 36.1561 56.173C36.9328 53.7758 35.6622 50.8731 33.6385 49.4963C30.5195 47.3714 26.184 50.1775 24.3972 52.7841C21.0691 57.6431 27.3124 62.691 31.1163 64.7885C32.2224 65.3988 34.7062 63.8999 33.3035 63.1273L33.304 63.1249Z" fill="#4B270F"/>
<path d="M32.5246 62.833C28.1474 61.0733 20.5339 58.6301 16.6085 62.4474C14.305 64.6878 14.5418 69.5547 16.8949 71.688C19.1567 73.74 22.5946 73.869 25.2433 72.4987C26.9621 71.61 25.4241 69.9464 23.956 70.7084C18.3393 73.6147 15.1516 63.3063 21.2114 62.7843C24.4139 62.5058 27.9565 63.6474 30.906 64.8326C32.1794 65.343 34.2211 63.5152 32.5246 62.833Z" fill="#4B270F"/>
<path d="M120.983 143.532C115.548 145.185 110.234 147.209 105.077 149.593V154.597C105.077 230.219 84.6272 239.162 66.6038 239.162C29.6438 239.162 45.0915 181.722 91.5953 152.02V95.4905C88.5654 96.853 83.8705 97.4596 77.0534 97.4596C53.7269 97.4596 57.0582 111.099 63.7249 117.618C66.2988 120.343 68.4192 120.497 74.1769 119.283C80.0833 117.921 80.689 127.164 74.4789 133.379C69.1771 138.683 62.8142 136.562 58.574 132.317C44.6373 118.373 49.485 93.067 74.6293 93.067C86.4444 93.067 90.8373 90.9444 91.8978 88.3686C91.9261 87.9013 92.028 87.4415 92.1998 87.0061V86.8526C92.1998 86.7004 92.1998 86.7004 92.3514 86.5505C92.9553 84.8829 94.1698 83.8213 96.2901 82.3065C104.773 75.9417 105.228 83.3675 105.228 97.004C105.228 105.342 105.076 129.892 105.076 144.594C109.737 142.435 114.546 140.612 119.467 139.138C130.676 135.955 130.676 140.65 120.983 143.532ZM91.5953 157.476C50.5455 185.209 41.0029 234.312 67.3599 234.312C85.9909 234.312 91.4437 215.368 91.5953 157.476Z" fill="#4B270F"/>
<path d="M165.516 172.024C168.848 188.088 182.26 191.878 191.5 191.878C182.412 191.878 177.634 179.752 177.634 154.444V129.44C177.634 115.797 177.179 108.372 168.696 114.738C164.605 117.921 164.001 118.528 164.001 126.558V149.592C162.789 172.024 156.43 187.484 147.794 187.484C137.796 187.484 135.675 179.449 135.675 154.745V129.44C135.675 115.797 135.221 108.372 126.737 114.738C122.496 117.921 122.041 118.528 122.041 126.558V155.655C122.193 186.119 132.343 191.878 145.52 191.878C154.608 191.878 161.426 184.756 165.516 172.024Z" fill="#4B270F"/>
<path d="M268.475 171.593C271.807 187.658 285.219 191.447 294.459 191.447C285.37 191.447 280.593 179.322 280.593 154.014V129.01C280.593 115.366 280.138 107.941 271.655 114.307C267.564 117.491 266.96 118.097 266.96 126.127V149.162C265.748 171.593 259.389 187.054 250.752 187.054C240.755 187.054 238.634 179.019 238.634 154.315V129.01C238.634 115.366 238.18 107.941 229.696 114.307C225.455 117.491 225 118.097 225 126.127V155.225C225.152 185.689 235.302 191.447 248.479 191.447C257.567 191.447 264.384 184.326 268.475 171.593Z" fill="#4B270F"/>
<path d="M212.778 139.287V180.814C212.174 226.735 196.721 240.073 178.239 240.073C154.912 240.073 151.277 209.306 165.515 202.637C176.42 197.486 181.572 209.913 171.727 212.183C157.791 215.516 160.97 235.673 180.512 235.673C193.691 235.673 198.992 222.336 199.144 181.72V136.41C199.144 128.374 199.748 127.619 203.839 124.588C212.322 118.225 212.778 125.65 212.778 139.287ZM213.533 107.161C213.578 108.711 213.161 110.239 212.334 111.551C211.508 112.863 210.31 113.899 208.892 114.527C207.475 115.155 205.903 115.346 204.377 115.077C202.85 114.807 201.439 114.089 200.322 113.014C199.205 111.939 198.433 110.555 198.105 109.04C197.777 107.524 197.908 105.945 198.48 104.504C199.053 103.063 200.041 101.825 201.319 100.948C202.598 100.071 204.108 99.5952 205.658 99.5804C207.704 99.5503 209.68 100.33 211.154 101.749C212.629 103.169 213.484 105.114 213.533 107.161Z" fill="#4B270F"/>
<path d="M330.168 191.878C341.588 191.47 353.862 184.472 352 182.5C350.138 180.528 350.26 179.2 349.5 180C348.74 180.799 339.557 186.922 331.536 187.03C321.692 187.03 313.358 179.754 313.358 154.446C313.358 131.259 316.995 120.802 327.75 120.802C342.743 120.802 338.048 133.229 328.354 135.653C318.506 137.926 323.201 149.899 334.108 144.744C345.619 139.444 349.554 116.56 330.168 116.56C308.052 116.56 299.725 130.499 299.725 154.444C299.725 185.512 316.841 191.878 330.168 191.878Z" fill="#4B270F"/>
<path d="M437.564 161.415C433.323 186.574 424.087 191.878 416.208 191.878C406.968 191.878 398.486 188.088 395.155 171.872C391.064 184.601 384.246 191.878 375.156 191.878C361.977 191.878 351.832 186.119 351.677 155.655V154.447C351.983 124.591 371.371 116.562 383.642 116.562C388.489 116.562 391.67 117.771 394.09 120.046C394.548 117.773 395.758 116.711 398.33 114.741C406.816 108.375 407.272 115.955 407.272 129.444V154.448C407.272 179.756 408.632 187.033 417.72 187.033C423.474 187.033 429.989 182.332 433.17 160.36C434.235 153.079 438.778 153.686 437.564 161.415ZM393.484 143.53C393.484 132.771 391.519 120.799 381.371 120.799C371.977 120.799 365.311 128.98 365.159 153.535V154.743C365.311 179.599 367.283 187.482 377.427 187.482C386.818 187.482 393.484 168.386 393.484 143.682V143.53Z" fill="#4B270F"/>
</svg>
